<?xml version="1.0" encoding="iso-8859-1"?>
<!-- Generator: Adobe Illustrator 19.0.0, SVG Export Plug-In . SVG Version: 6.00 Build 0)  -->
<svg xmlns="http://www.w3.org/2000/svg" xmlns:xlink="http://www.w3.org/1999/xlink" version="1.1" id="Layer_1" x="0px" y="0px" viewBox="0 0 512 512" style="enable-background:new 0 0 512 512;" xml:space="preserve" width="512" height="512">
<g>
	<g>
		<rect x="30" y="226" style="fill:#BBDCFF;" width="30" height="241"/>
	</g>
	<g>
		<rect x="452" y="226" style="fill:#9ABADB;" width="30" height="241"/>
	</g>
	<g>
		<rect x="241" y="226" style="fill:#BBDCFF;" width="30" height="241"/>
	</g>
	<rect x="256" y="226" style="fill:#9ABADB;" width="15" height="241"/>
	<polygon style="fill:#E0F4FF;" points="451,0 451,60 421,60 421,91 403.001,121 346.901,121 301,91 301,60 271,60 271,0  "/>
	<polygon style="fill:#BBDCFF;" points="451,0 451,60 421,60 421,91 403.001,121 361,121 361,0  "/>
	<polygon style="fill:#E0F4FF;" points="241,0 241,60 211,60 211,121 193.001,151 136.901,151 91,121 91,60 61,60 61,0  "/>
	<polygon style="fill:#BBDCFF;" points="241,0 241,60 211,60 211,121 193.001,151 151,151 151,0  "/>
	<g>
		<path style="fill:#FF641A;" d="M301,91v240c0,32.999,27.001,60,60,60s60-27.001,60-60V91H301z"/>
	</g>
	<path style="fill:#F03800;" d="M421,91v240c0,32.999-27.001,60-60,60V91H421z"/>
	<g>
		<path style="fill:#FF641A;" d="M91,121v210c0,32.999,27.001,60,60,60s60-27.001,60-60V121H91z"/>
	</g>
	<path style="fill:#F03800;" d="M211,121v210c0,32.999-27.001,60-60,60V121H211z"/>
	<g>
		<rect y="211" style="fill:#BBDCFF;" width="512" height="30"/>
	</g>
	<rect x="256" y="211" style="fill:#9ABADB;" width="256" height="30"/>
	<g>
		<path style="fill:#8C4A37;" d="M467,452H45c-24.901,0-45,20.099-45,45v15h512v-15C512,472.099,491.901,452,467,452z"/>
	</g>
	<path style="fill:#663325;" d="M512,497v15H256v-60h211C491.901,452,512,472.099,512,497z"/>
</g>















</svg>
