<?xml version="1.0"?>
<svg xmlns="http://www.w3.org/2000/svg" id="Layer_1" data-name="Layer 1" viewBox="0 0 512 512" width="512" height="512"><title>Paint Brushe</title><path d="M256,309.57l-39.34-36.4,61.22-61.22,34.74,37.55L473,422.86a32.141,32.141,0,0,1-.86,44.56l-.01.01a32.141,32.141,0,0,1-44.56.86Z" style="fill:#fedb41"/><path d="M375.61,163.24a61.58,61.58,0,0,1-32.04-32.68,62.961,62.961,0,0,1-4.8-24.17c0-25.01,14.72-49.21,41.42-56.24l91.94-14.99L457,127.25C447.68,162.97,407.34,177.2,375.61,163.24Z" style="fill:#00acea"/><path d="M375.61,163.24,312.62,249.5l-34.74-37.55L255.8,195.82l87.65-65.21.12-.05a61.58,61.58,0,0,0,32.04,32.68Z" style="fill:#00ceb4"/><path d="M277.88,211.95l-61.22,61.22L199.19,249.7l-63.87-85.86-.05-.12a61.58,61.58,0,0,0,32.68-32.04l87.85,64.14Z" style="fill:#00efd1"/><path d="M216.66,273.17,256,309.57,84.43,468.29a32.141,32.141,0,0,1-44.56-.86l-.01-.01A32.141,32.141,0,0,1,39,422.86L199.19,249.7Z" style="fill:#f4b844"/><path d="M167.95,131.68a61.58,61.58,0,0,1-32.68,32.04,62.873,62.873,0,0,1-24.18,4.81c-25,0-49.2-14.72-56.24-41.42L39.87,35.16l92.09,15.13C167.68,59.61,181.91,99.95,167.95,131.68Z" style="fill:#00acea"/><path d="M399.885,148H400a40.578,40.578,0,0,0,28.83-12.024,7.993,7.993,0,1,0-11.314-11.294A24.668,24.668,0,0,1,400,132h-.068a24.948,24.948,0,0,1-17.679-7.466,8.007,8.007,0,1,0-11.318,11.329A40.78,40.78,0,0,0,399.885,148Z" style="fill:#083863"/><path d="M322.963,248.9l55.511-76.017a71.52,71.52,0,0,0,22.482,3.623,70.051,70.051,0,0,0,30.436-6.862,61.561,61.561,0,0,0,33.349-40.375q.093-.359.154-.723l15.129-92.09a8,8,0,0,0-9.181-9.193L378.9,42.254c-.253.041-.5.095-.75.16-28.341,7.462-47.383,33.172-47.383,63.976a70.7,70.7,0,0,0,3.249,21.265L255.75,185.886l-78.16-57.072A71.225,71.225,0,0,0,174.354,75.9a61.556,61.556,0,0,0-40.375-33.349q-.357-.093-.722-.153l-92.09-15.13a8,8,0,0,0-9.192,9.18L46.954,128.4c.041.254.095.505.16.753,7.472,28.34,33.182,47.381,63.976,47.381a70.684,70.684,0,0,0,21.278-3.256l56.444,75.866L33.128,417.427a40.027,40.027,0,0,0,1.03,55.6l.055.056a40.027,40.027,0,0,0,55.649,1.076L256,320.468l166.138,153.7a40.027,40.027,0,0,0,55.649-1.076l.051-.051a40.031,40.031,0,0,0,1.034-55.609ZM381.87,57.981l80.561-13.134-13.263,80.727a45.794,45.794,0,0,1-24.744,29.668,55.055,55.055,0,0,1-45.6.67,53.585,53.585,0,0,1-27.86-28.418l0-.009a54.6,54.6,0,0,1-4.186-21.095C346.77,86.989,357.627,64.556,381.87,57.981Zm-41.162,84.64A69.849,69.849,0,0,0,363.7,165.99l-51.807,70.943-28.139-30.416a8.094,8.094,0,0,0-1.153-1.027l-13.321-9.726ZM217.551,260.965l-70.219-94.383A69.872,69.872,0,0,0,170.7,143.591l94.915,69.31ZM62.682,125.429,49.556,44.859l80.728,13.263a45.789,45.789,0,0,1,29.667,24.743,55.057,55.057,0,0,1,.671,45.606,53.582,53.582,0,0,1-28.419,27.86l-.013.005a54.522,54.522,0,0,1-21.1,4.194C91.7,160.53,69.265,149.673,62.682,125.429ZM79,462.417a24.075,24.075,0,0,1-33.434-.607l-.045-.047a24.076,24.076,0,0,1-.646-33.471L198.526,262.2l11.717,15.749a7.984,7.984,0,0,0,.984,1.095l32.993,30.527Zm387.485-.654-.044.045a24.073,24.073,0,0,1-33.435.609L261.434,303.7,228.2,272.946l49.457-49.458,189.473,204.8A24.076,24.076,0,0,1,466.482,461.763Z" style="fill:#083863"/><path d="M140.476,136.359a40.986,40.986,0,0,0,.133-57.894,8,8,0,0,0-11.318,11.31,24.966,24.966,0,0,1-.126,35.267,8,8,0,0,0,11.311,11.317Z" style="fill:#083863"/></svg>
