<svg height="470pt" viewBox="-5 0 470 470.28" width="470pt" xmlns="http://www.w3.org/2000/svg"><path d="m35.851562 4.007812h316.425782v462.265626h-316.425782zm0 0" fill="#d1d1d1"/><path d="m352.277344 470.28125h-316.449219c-1.0625 0-2.082031-.425781-2.832031-1.167969-.753906-.746093-1.167969-1.769531-1.167969-2.832031l.039063-462.273438c0-2.207031 1.792968-3.9999995 4-3.9999995h316.410156c2.207031 0 4 1.7929685 4 3.9999995v462.265626c0 2.214843-1.792969 4.007812-4 4.007812zm-312.449219-8h308.449219v-454.273438h-308.410156zm0 0" fill="#63312d"/><path d="m426.78125 36.097656v-32.089844h-78.167969v462.265626h78.167969v-32.089844c-14.007812 0-25.359375-11.351563-25.359375-25.359375 0-14.007813 11.351563-25.359375 25.359375-25.359375v-36.128906c-14.007812 0-25.359375-11.351563-25.359375-25.359376 0-14 11.351563-25.359374 25.359375-25.359374v-36.113282c-14.007812 0-25.359375-11.351562-25.359375-25.359375 0-14.007812 11.351563-25.359375 25.359375-25.359375v-36.128906c-14.007812 0-25.359375-11.351562-25.359375-25.359375 0-14 11.351563-25.359375 25.359375-25.359375v-36.128906c-14.007812 0-25.359375-11.351563-25.359375-25.359375 0-14 11.351563-25.351563 25.359375-25.351563zm0 0" fill="#d1d1d1"/><path d="m426.78125 470.28125h-78.167969c-2.210937 0-4-1.792969-4-4v-462.273438c0-2.207031 1.789063-3.9999995 4-3.9999995h78.167969c2.207031 0 4 1.7929685 4 3.9999995v32.089844c0 2.207032-1.792969 4-4 4-11.785156 0-21.359375 9.574219-21.359375 21.359375 0 11.773438 9.574219 21.351563 21.359375 21.351563 2.207031 0 4 1.792968 4 4v36.136718c0 2.207032-1.792969 4-4 4-11.785156 0-21.359375 9.574219-21.359375 21.359376 0 11.773437 9.574219 21.351562 21.359375 21.351562 2.207031 0 4 1.792969 4 4v36.136719c0 2.207031-1.792969 4-4 4-11.785156 0-21.359375 9.574219-21.359375 21.359375s9.574219 21.359375 21.359375 21.359375c2.207031 0 4 1.792969 4 4v36.136719c0 2.207031-1.792969 4-4 4-11.785156 0-21.359375 9.574218-21.359375 21.351562 0 11.785156 9.574219 21.359375 21.359375 21.359375 2.207031 0 4 1.792969 4 4v36.136719c0 2.207031-1.792969 4-4 4-11.785156 0-21.359375 9.574218-21.359375 21.351562 0 11.785156 9.574219 21.359375 21.359375 21.359375 2.207031 0 4 1.792969 4 4v32.089844c0 2.191406-1.792969 3.984375-4 3.984375zm-74.167969-8h70.167969v-24.359375c-14.304688-1.953125-25.359375-14.25-25.359375-29.089844 0-14.832031 11.054687-27.128906 25.359375-29.078125v-28.683594c-14.304688-1.949218-25.359375-14.246093-25.359375-29.085937 0-14.832031 11.054687-27.128906 25.359375-29.082031v-28.679688c-14.304688-1.949218-25.359375-14.246094-25.359375-29.085937 0-14.839844 11.054687-27.136719 25.359375-29.089844v-28.679687c-14.304688-1.953126-25.359375-14.246094-25.359375-29.078126 0-14.832031 11.054687-27.136718 25.359375-29.089843v-28.679688c-14.304688-1.953125-25.359375-14.246093-25.359375-29.078125 0-14.832031 11.054687-27.136718 25.359375-29.089844v-24.34375h-70.167969zm0 0" fill="#63312d"/><path d="m353.421875 408.832031c0-14.007812 11.351563-25.359375 25.359375-25.359375v-36.128906c-14.007812 0-25.359375-11.351562-25.359375-25.359375 0-14 11.351563-25.359375 25.359375-25.359375v-36.121094c-14.007812 0-25.359375-11.351562-25.359375-25.359375 0-14.007812 11.351563-25.359375 25.359375-25.359375v-36.128906c-14.007812 0-25.359375-11.351562-25.359375-25.359375 0-14 11.351563-25.359375 25.359375-25.359375v-36.128906c-14.007812 0-25.359375-11.351563-25.359375-25.359375 0-14 11.351563-25.359375 25.359375-25.359375v-32.082032h-31.730469c0 .128907.042969.25.042969.382813 0 14-11.355469 25.363281-25.363281 25.363281-14 0-25.359375-11.355468-25.359375-25.363281 0-.125.039062-.253906.039062-.382813h-36.207031c0 .128907.039063.25.039063.382813 0 14-11.351563 25.363281-25.359376 25.363281-14 0-25.359374-11.355468-25.359374-25.363281 0-.125.039062-.253906.039062-.382813h-36.207031c0 .128907.039062.25.039062.382813 0 14-11.351562 25.363281-25.359375 25.363281-14.007812 0-25.359375-11.355468-25.359375-25.363281 0-.125.039063-.253906.039063-.382813h-36.207032c0 .128907.039063.25.039063.382813 0 14-11.351563 25.363281-25.359375 25.363281-14 0-25.359375-11.355468-25.359375-25.363281 0-.125.039063-.253906.039063-.382813h-31.726563v32.089844c14.007813 0 25.359375 11.351563 25.359375 25.359375 0 14.007813-11.351562 25.359375-25.359375 25.359375v36.128906c14.007813 0 25.359375 11.351563 25.359375 25.359376 0 14.007812-11.351562 25.359374-25.359375 25.359374v36.128907c14.007813 0 25.359375 11.351562 25.359375 25.359375 0 14-11.351562 25.359375-25.359375 25.359375v36.136719c14.007813 0 25.359375 11.351562 25.359375 25.359374 0 14.007813-11.351562 25.359376-25.359375 25.359376v36.128906c14.007813 0 25.359375 11.351562 25.359375 25.359375 0 14.007812-11.351562 25.359375-25.359375 25.359375v32.089844h31.6875c0-14 11.351563-25.359376 25.359375-25.359376s25.359375 11.351563 25.359375 25.359376h36.128906c0-14 11.351563-25.359376 25.359375-25.359376 14 0 25.359375 11.351563 25.359375 25.359376h36.128907c0-14 11.351562-25.359376 25.359374-25.359376 14.007813 0 25.359376 11.351563 25.359376 25.359376h36.128906c0-14 11.351562-25.359376 25.359375-25.359376 14.007812 0 25.363281 11.351563 25.363281 25.359376h31.6875v-32.089844c-14.007812-.023438-25.359375-11.375-25.359375-25.382813zm0 0" fill="#eee"/><g fill="#63312d"><path d="m378.78125 470.28125h-31.6875c-2.210938 0-4-1.792969-4-4 0-11.785156-9.578125-21.359375-21.363281-21.359375-11.78125 0-21.359375 9.574219-21.359375 21.359375 0 2.207031-1.792969 4-4 4h-36.136719c-2.207031 0-4-1.792969-4-4 0-11.785156-9.574219-21.359375-21.351563-21.359375-11.78125 0-21.359374 9.574219-21.359374 21.359375 0 2.207031-1.792969 4-4 4h-36.136719c-2.207031 0-4-1.792969-4-4 0-11.785156-9.574219-21.359375-21.359375-21.359375-11.773438 0-21.351563 9.574219-21.351563 21.359375 0 2.207031-1.792969 4-4 4h-36.136719c-2.207031 0-4-1.792969-4-4 0-11.785156-9.574218-21.359375-21.359374-21.359375-11.785157 0-21.359376 9.574219-21.359376 21.359375 0 2.207031-1.792968 4-4 4h-31.679687c-2.207031 0-4-1.792969-4-4v-32.089844c0-2.207031 1.792969-4 4-4 11.785156 0 21.359375-9.574218 21.359375-21.359375 0-11.777343-9.574219-21.351562-21.359375-21.351562-2.207031 0-4-1.792969-4-4v-36.136719c0-2.207031 1.792969-4 4-4 11.785156 0 21.359375-9.574219 21.359375-21.359375 0-11.777344-9.574219-21.351563-21.359375-21.351563-2.207031 0-4-1.792968-4-4v-36.128906c0-2.207031 1.792969-4 4-4 11.785156 0 21.359375-9.574218 21.359375-21.359375 0-11.785156-9.574219-21.359375-21.359375-21.359375-2.207031 0-4-1.792968-4-4v-36.136718c0-2.207032 1.792969-4 4-4 11.785156 0 21.359375-9.578126 21.359375-21.351563 0-11.785156-9.574219-21.359375-21.359375-21.359375-2.207031 0-4-1.792969-4-4v-36.136719c0-2.207031 1.792969-4 4-4 11.785156 0 21.359375-9.578125 21.359375-21.351562 0-11.785157-9.574219-21.359375-21.359375-21.359375-2.207031 0-4-1.792969-4-4v-32.082032c0-2.207031 1.792969-3.9999995 4-3.9999995h31.726563c2.207031 0 4 1.7929685 4 3.9999995 0 .199219-.039063.601563-.070313.816407.03125 11.351562 9.605469 20.929687 21.390625 20.929687s21.359375-9.578125 21.359375-21.363281c0-2.207031 1.753906-4.3828125 3.960937-4.3828125h36.207032c1.105468 0 2.160156.4570315 2.914062 1.2578125.75.796875 1.144532 1.871094 1.078125 2.972656-.03125 11.929688 9.546875 21.503907 21.320313 21.503907 11.785156 0 21.359375-9.574219 21.359375-21.359376 0-2.207031 1.753906-4.382812 3.960937-4.382812h36.207032c2.210937 0 4 1.792969 4 4 0 .199219-.039063.601562-.070313.816406.03125 11.351563 9.609375 20.925782 21.390625 20.925782 11.777344 0 21.351562-9.574219 21.351562-21.359376-.0625-1.101562.3125-2.246093 1.074219-3.054687.75-.800781 1.792969-1.328125 2.886719-1.328125h36.207031c2.210938 0 4 1.792969 4 4 0 .199219-.039062.601562-.070312.816406.03125 11.351563 9.609375 20.925782 21.390625 20.925782 11.785156 0 21.359375-9.574219 21.359375-21.359376 0-2.207031 1.753906-4.382812 3.960937-4.382812h31.730469c2.207031 0 4 1.792969 4 4v32.089844c0 2.207031-1.792969 4-4 4-11.785156 0-21.363281 9.574218-21.363281 21.359375 0 11.773437 9.578125 21.351562 21.363281 21.351562 2.207031 0 4 1.792969 4 4v36.136719c0 2.207031-1.792969 4-4 4-11.785156 0-21.363281 9.574219-21.363281 21.359375 0 11.773437 9.578125 21.351563 21.363281 21.351563 2.207031 0 4 1.792968 4 4v36.136718c0 2.207032-1.792969 4-4 4-11.785156 0-21.363281 9.574219-21.363281 21.359375 0 11.785157 9.578125 21.359375 21.363281 21.359375 2.207031 0 4 1.792969 4 4v36.136719c0 2.207031-1.792969 4-4 4-11.785156 0-21.363281 9.574219-21.363281 21.351563 0 11.785156 9.578125 21.359374 21.363281 21.359374 2.207031 0 4 1.792969 4 4v36.136719c0 2.207031-1.792969 4-4 4-11.785156 0-21.363281 9.574219-21.363281 21.351563 0 11.785156 9.578125 21.359375 21.363281 21.359375 2.207031 0 4 1.792969 4 4v32.089843c.015625 2.199219-1.777344 3.992188-3.984375 3.992188zm-27.96875-8h23.960938v-24.359375c-14.304688-1.953125-25.363282-14.25-25.363282-29.089844 0-14.832031 11.058594-27.128906 25.363282-29.078125v-28.683594c-14.304688-1.949218-25.363282-14.246093-25.363282-29.085937 0-14.832031 11.058594-27.128906 25.363282-29.082031v-28.679688c-14.304688-1.949218-25.363282-14.246094-25.363282-29.085937 0-14.839844 11.058594-27.136719 25.363282-29.089844v-28.679687c-14.304688-1.953126-25.363282-14.246094-25.363282-29.078126 0-14.832031 11.058594-27.136718 25.363282-29.089843v-28.679688c-14.304688-1.953125-25.363282-14.246093-25.363282-29.078125 0-14.832031 11.058594-27.136718 25.363282-29.089844v-24.34375h-23.976563c-1.890625 14.640626-14.207031 25.746094-29.074219 25.746094-14.957031 0-27.351562-11.25-29.144531-25.746094h-28.671875c-1.957031 14.734376-14.230469 25.746094-29.03125 25.746094-14.960938 0-27.351562-11.25-29.144531-25.746094h-28.636719c-1.890625 14.640626-14.210938 25.746094-29.074219 25.746094-14.960937 0-27.34375-11.25-29.136719-25.746094h-28.640624c-1.886719 14.640626-14.207032 25.746094-29.070313 25.746094-14.960937 0-27.351563-11.25-29.144531-25.746094h-23.886719v24.359376c14.304687 1.953124 25.359375 14.25 25.359375 29.089843 0 14.832031-11.054688 27.128907-25.359375 29.078125v28.679688c14.304687 1.953125 25.359375 14.25 25.359375 29.089844 0 14.832031-11.054688 27.128906-25.359375 29.078124v28.679688c14.304687 1.953125 25.359375 14.25 25.359375 29.089844s-11.054688 27.136718-25.359375 29.085937v28.683594c14.304687 1.949219 25.359375 14.246094 25.359375 29.078125s-11.054688 27.136719-25.359375 29.089844v28.679687c14.304687 1.949219 25.359375 14.246094 25.359375 29.078125 0 14.832032-11.054688 27.136719-25.359375 29.089844v24.359375h23.960937c1.949219-14.304687 14.246094-25.359375 29.085938-25.359375s27.136719 11.054688 29.089844 25.359375h28.679687c1.949219-14.304687 14.246094-25.359375 29.078125-25.359375 14.832032 0 27.136719 11.054688 29.089844 25.359375h28.679688c1.953124-14.304687 14.246093-25.359375 29.085937-25.359375 14.832031 0 27.128906 11.054688 29.082031 25.359375h28.679688c1.953125-14.304687 14.246094-25.359375 29.085937-25.359375 14.839844 0 27.121094 11.039062 29.074219 25.34375zm0 0"/><path d="m378.78125 32.097656h48v8h-48zm0 0"/><path d="m378.699219 82.855469h48.144531v8h-48.144531zm0 0"/><path d="m378.78125 118.960938h48.144531v8h-48.144531zm0 0"/><path d="m378.699219 169.703125h48.144531v8h-48.144531zm0 0"/><path d="m378.78125 205.808594h48.144531v8h-48.144531zm0 0"/><path d="m378.699219 256.566406h48.144531v8h-48.144531zm0 0"/><path d="m378.78125 292.664062h48.144531v8h-48.144531zm0 0"/><path d="m378.699219 343.414062h48.144531v8h-48.144531zm0 0"/><path d="m378.78125 379.519531h48.144531v8h-48.144531zm0 0"/><path d="m378.699219 430.28125h48.144531v8h-48.144531zm0 0"/></g><path d="m65.460938 71.144531h252v328h-252zm0 0" fill="#82d9ff"/><path d="m81.460938 87.144531h236v-16h-252v328h16zm0 0" fill="#caf4ff"/><path d="m317.453125 403.144531h-252c-2.210937 0-4-1.792969-4-4v-328c0-2.207031 1.789063-4 4-4h252c2.207031 0 4 1.792969 4 4v328c0 2.207031-1.785156 4-4 4zm-248-8h244v-320h-244zm0 0" fill="#63312d"/><path d="m282.621094 159.191406c0 27.960938-22.667969 50.625-50.625 50.625-27.957032 0-50.625-22.664062-50.625-50.625 0-27.957031 22.667968-50.625 50.625-50.625 27.957031 0 50.625 22.667969 50.625 50.625zm0 0" fill="#f9a287"/><path d="m232.003906 213.808594c-30.121094 0-54.625-24.503906-54.625-54.617188 0-30.113281 24.503906-54.625 54.625-54.625s54.617188 24.503906 54.617188 54.625-24.503906 54.617188-54.617188 54.617188zm0-101.242188c-25.710937 0-46.625 20.914063-46.625 46.625 0 25.703125 20.914063 46.617188 46.625 46.617188 25.703125 0 46.617188-20.914063 46.617188-46.617188 0-25.710937-20.914063-46.625-46.617188-46.625zm0 0" fill="#63312d"/><path d="m390.5625 349.734375c-22.964844 0-45.933594-6.6875-66.007812-20.070313l-1.640626-1.089843c-34.316406-22.886719-78.734374-23.007813-113.175781-.292969l-1.644531 1.085938-9.160156-13.839844 1.65625-1.09375c40.03125-26.394532 91.636718-26.242188 131.519531.335937l1.636719 1.085938c34.707031 23.152343 79.464844 23.039062 114.058594-.28125l9.269531 13.761719c-20.167969 13.59375-43.34375 20.398437-66.511719 20.398437zm0 0" fill="#52b8d9"/><path d="m390.5625 308.246094c-22.964844 0-45.933594-6.6875-66.007812-20.070313l-1.640626-1.085937c-34.316406-22.890625-78.734374-23.011719-113.175781-.296875l-1.644531 1.085937-9.160156-13.839844 1.65625-1.09375c40.03125-26.394531 91.636718-26.25 131.519531.335938l1.636719 1.085938c34.707031 23.152343 79.464844 23.039062 114.058594-.277344l9.269531 13.757812c-20.167969 13.601563-43.34375 20.398438-66.511719 20.398438zm0 0" fill="#52b8d9"/><path d="m390.5625 391.222656c-22.964844 0-45.933594-6.6875-66.007812-20.070312l-1.640626-1.089844c-34.316406-22.886719-78.734374-22.992188-113.175781-.292969l-1.644531 1.085938-9.160156-13.839844 1.65625-1.09375c40.03125-26.386719 91.636718-26.25 131.519531.335937l1.636719 1.085938c34.707031 23.144531 79.464844 23.039062 114.058594-.28125l9.269531 13.761719c-20.167969 13.589843-43.34375 20.398437-66.511719 20.398437zm0 0" fill="#52b8d9"/><path d="m390.5625 353.734375c-24.277344 0-47.871094-7.167969-68.222656-20.742187l-1.632813-1.089844c-32.976562-21.992188-75.679687-22.109375-108.75-.285156l-1.648437 1.09375c-1.839844 1.199218-4.328125.703124-5.535156-1.144532l-9.160157-13.839844c-.585937-.878906-.800781-1.957031-.585937-3 .214844-1.046874.832031-1.949218 1.71875-2.535156l1.65625-1.09375c41.355468-27.257812 94.707031-27.128906 135.9375.34375l1.632812 1.085938c33.34375 22.234375 76.359375 22.136718 109.605469-.28125.875-.589844 1.953125-.8125 3-.605469 1.042969.199219 1.960937.816406 2.554687 1.695313l9.261719 13.761718c1.234375 1.832032.753907 4.308594-1.085937 5.542969-20.457032 13.800781-44.222656 21.09375-68.746094 21.09375zm-124.453125-46.40625c20.566406 0 41.125 5.976563 59.039063 17.917969l1.632812 1.089844c19.03125 12.6875 41.09375 19.398437 63.789062 19.398437 21.585938 0 42.5625-6.054687 60.929688-17.550781l-4.808594-7.128906c-35.4375 22.042968-80.207031 21.425781-115.160156-1.871094l-1.632812-1.085938c-37.972657-25.296875-86.972657-25.808594-125.398438-1.425781l4.742188 7.167969c17.402343-11 37.136718-16.511719 56.867187-16.511719zm0 0" fill="#63312d"/><path d="m390.5625 312.257812c-24.277344 0-47.871094-7.167968-68.222656-20.746093l-1.632813-1.085938c-32.976562-21.992187-75.679687-22.105469-108.75-.296875l-1.648437 1.09375c-1.839844 1.203125-4.3125.699219-5.535156-1.132812l-9.160157-13.832032c-.585937-.890624-.800781-1.96875-.585937-3.011718.214844-1.039063.832031-1.949219 1.71875-2.535156l1.65625-1.09375c41.363281-27.28125 94.722656-27.128907 135.9375.335937l1.632812 1.085937c33.34375 22.234376 76.375 22.144532 109.605469-.269531.875-.59375 1.953125-.808593 3-.609375 1.042969.199219 1.960937.816406 2.554687 1.695313l9.261719 13.761719c1.234375 1.832031.753907 4.320312-1.085937 5.550781-20.472656 13.792969-44.242188 21.089843-68.746094 21.089843zm-124.453125-46.410156c20.558594 0 41.125 5.976563 59.039063 17.921875l1.632812 1.085938c19.03125 12.6875 41.09375 19.402343 63.789062 19.402343 21.578126 0 42.554688-6.058593 60.929688-17.554687l-4.808594-7.128906c-35.4375 22.035156-80.222656 21.425781-115.160156-1.878907l-1.632812-1.085937c-37.972657-25.3125-86.964844-25.800781-125.398438-1.417969l4.742188 7.167969c17.394531-11.015625 37.136718-16.511719 56.867187-16.511719zm0 0" fill="#63312d"/><path d="m390.5625 395.222656c-24.292969 0-47.886719-7.167968-68.222656-20.742187l-1.632813-1.089844c-32.96875-21.976563-75.65625-22.09375-108.75-.285156l-1.648437 1.09375c-1.839844 1.191406-4.328125.695312-5.535156-1.144531l-9.160157-13.839844c-.585937-.878906-.800781-1.957032-.585937-3 .214844-1.046875.832031-1.949219 1.71875-2.535156l1.65625-1.09375c41.371094-27.257813 94.722656-27.128907 135.9375.34375l1.632812 1.085937c33.34375 22.230469 76.375 22.144531 109.605469-.273437.875-.589844 1.953125-.804688 3-.605469 1.042969.199219 1.960937.816406 2.554687 1.695312l9.261719 13.761719c1.234375 1.832031.753907 4.316406-1.085937 5.550781-20.464844 13.792969-44.234375 21.078125-68.746094 21.078125zm-124.445312-46.398437c20.558593 0 41.117187 5.96875 59.023437 17.910156l1.632813 1.089844c19.023437 12.6875 41.078124 19.398437 63.789062 19.398437 21.585938 0 42.5625-6.054687 60.929688-17.542968l-4.808594-7.128907c-35.441406 22.042969-80.222656 21.417969-115.160156-1.878906l-1.632813-1.085937c-37.976563-25.304688-86.964844-25.792969-125.398437-1.425782l4.742187 7.167969c17.410156-11.007813 37.152344-16.503906 56.882813-16.503906zm0 0" fill="#63312d"/></svg>